<svg width="212" height="19" viewBox="0 0 212 19" fill="none" xmlns="http://www.w3.org/2000/svg">
<path d="M105.875 11.7188L107.406 3.625L109.742 3.625L107.219 15L104.859 15L103.008 7.39063L101.156 15L98.7969 15L96.2734 3.625L98.6094 3.625L100.148 11.7031L102.023 3.625L104.008 3.625L105.875 11.7188ZM122.273 15L119.93 15L119.93 10.125L115.359 10.125L115.359 15L113.016 15L113.016 3.625L115.359 3.625L115.359 8.23438L119.93 8.23438L119.93 3.625L122.273 3.625L122.273 15ZM132.891 12.6563L128.781 12.6563L128 15L125.508 15L129.742 3.62501L131.914 3.62501L136.172 15L133.68 15L132.891 12.6563ZM129.414 10.7578L132.258 10.7578L130.828 6.50001L129.414 10.7578ZM146.859 5.52345L143.375 5.52345L143.375 15L141.031 15L141.031 5.52345L137.594 5.52344L137.594 3.62501L146.859 3.62501L146.859 5.52345ZM164.578 11.7188L166.109 3.62501L168.445 3.62501L165.922 15L163.562 15L161.711 7.39064L159.859 15L157.5 15L154.977 3.62501L157.312 3.62501L158.852 11.7031L160.727 3.62501L162.711 3.62501L164.578 11.7188ZM178.562 10.0703L174.062 10.0703L174.062 13.1172L179.344 13.1172L179.344 15L171.719 15L171.719 3.62501L179.328 3.62501L179.328 5.52345L174.062 5.52345L174.062 8.23439L178.562 8.23439L178.562 10.0703ZM188.703 15L188.703 3.62502L192.203 3.62502C193.203 3.62502 194.096 3.85158 194.883 4.3047C195.674 4.75262 196.292 5.39325 196.734 6.22658C197.177 7.05471 197.398 7.99741 197.398 9.05471L197.398 9.57814C197.398 10.6354 197.18 11.5755 196.742 12.3985C196.31 13.2214 195.698 13.8594 194.906 14.3125C194.115 14.7656 193.221 14.9948 192.227 15L188.703 15ZM191.047 5.52345L191.047 13.1172L192.18 13.1172C193.096 13.1172 193.797 12.8177 194.281 12.2188C194.766 11.6198 195.013 10.763 195.023 9.64845L195.023 9.04689C195.023 7.89064 194.784 7.01564 194.305 6.42189C193.826 5.82293 193.125 5.52345 192.203 5.52345L191.047 5.52345ZM210.453 9.57033C210.453 10.6901 210.255 11.6719 209.859 12.5156C209.464 13.3594 208.896 14.0104 208.156 14.4688C207.422 14.9271 206.578 15.1563 205.625 15.1563C204.682 15.1563 203.841 14.9297 203.102 14.4766C202.362 14.0235 201.789 13.3776 201.383 12.5391C200.977 11.6953 200.771 10.7266 200.766 9.63283L200.766 9.07033C200.766 7.95054 200.966 6.96616 201.367 6.11721C201.773 5.26304 202.344 4.60939 203.078 4.15627C203.818 3.69794 204.661 3.46877 205.609 3.46877C206.557 3.46877 207.398 3.69794 208.133 4.15627C208.872 4.60939 209.443 5.26304 209.844 6.11721C210.25 6.96617 210.453 7.94794 210.453 9.06252L210.453 9.57033ZM208.078 9.05471C208.078 7.862 207.865 6.95575 207.437 6.33596C207.01 5.71617 206.401 5.40627 205.609 5.40627C204.823 5.40627 204.216 5.71356 203.789 6.32814C203.362 6.93752 203.146 7.83335 203.141 9.01564L203.141 9.57033C203.141 10.7318 203.354 11.6328 203.781 12.2735C204.208 12.9141 204.823 13.2344 205.625 13.2344C206.411 13.2344 207.016 12.9271 207.437 12.3125C207.859 11.6927 208.073 10.7917 208.078 9.60939L208.078 9.05471Z" fill="#1D2130"/>
<path d="M0 9.5H72" stroke="#1D2130" stroke-width="2"/>
</svg>
